<?xml version="1.0" encoding="UTF-8" standalone="no"?>
<!-- Created with Inkscape (http://www.inkscape.org/) -->

<svg
   width="12.417943mm"
   height="17.06288mm"
   viewBox="0 0 12.417943 17.06288"
   version="1.1"
   id="svg1"
   xmlns="http://www.w3.org/2000/svg"
   xmlns:svg="http://www.w3.org/2000/svg">
  <defs
     id="defs1">
    <linearGradient
       id="swatch17">
      <stop
         style="stop-color:#000000;stop-opacity:1;"
         offset="0"
         id="stop17" />
    </linearGradient>
  </defs>
  <g
     id="layer1"
     transform="translate(-80.233655,-116.25808)">
    <path
       d="m 88.130859,115.7793 c -1.894311,0 -2.857422,1.17585 -2.857422,3.4375 v 7.1582 c -0.291168,-0.0251 -0.560381,-0.10663 -0.8125,-0.24414 -0.308828,-0.16845 -0.59415,-0.42193 -0.855468,-0.77148 -0.581158,-0.77714 -0.882813,-1.86365 -0.882813,-3.2793 0,-1.32808 0.299321,-2.37014 0.882813,-3.15039 0.199874,-0.2688 0.405159,-0.48852 0.611328,-0.65625 0.360057,-0.29294 0.757812,-0.81499 0.757812,-1.33985 v -0.16015 c 0,-0.56649 -0.478008,-0.97406 -1.03125,-0.80469 -0.868689,0.26595 -1.600085,0.71198 -2.189453,1.3418 -1.017675,1.0925 -1.509765,2.69139 -1.509765,4.76953 0,2.00264 0.493088,3.59024 1.505859,4.75195 0.949061,1.08363 2.131027,1.65735 3.523437,1.70703 v 3.0293 c 0,0 0,0.002 0,0.002 0,0 0,0.002 0,0.002 5.2e-5,0.001 9.8e-5,0.003 0,0.004 v 0.008 c -0.04216,0.64509 0.439016,1.20696 1.085938,1.25782 h 0.0078 0.0078 c 0.695354,0 1.25781,-0.56246 1.257812,-1.25782 v -3.05468 c 1.419939,-0.0484 2.59537,-0.61719 3.513672,-1.69922 1.017189,-1.19538 1.515625,-2.78497 1.515625,-4.75977 0,-2.1399 -0.496083,-3.7571 -1.523437,-4.81445 -0.936956,-0.97384 -1.939921,-1.47656 -3.007813,-1.47656 z m 0,2.08203 c 0.109363,0 0.23647,0.0383 0.386719,0.1289 0.225374,0.13595 0.494107,0.39117 0.785156,0.76954 0.578319,0.75316 0.88086,1.85118 0.88086,3.31054 0,1.56867 -0.307204,2.64568 -0.861328,3.25196 -0.58478,0.64017 -1.145654,0.97188 -1.689454,1.03711 v -7.14258 c 10e-7,-0.50332 0.06234,-0.8703 0.158204,-1.08399 0.04793,-0.10684 0.101297,-0.1735 0.154296,-0.21289 0.053,-0.0394 0.106553,-0.0586 0.185547,-0.0586 z"
       id="text3"
       style="font-size:21.9604px;font-family:Chiller;-inkscape-font-specification:'Chiller, Normal';fill:#000000;stroke-width:16.1057;stroke-linejoin:bevel;stroke-miterlimit:0;stroke-dasharray:none;paint-order:stroke fill markers"
       aria-label="φ"
       transform="translate(-0.01047855,0.47877575)" />
  </g>
</svg>
